<?xml version="1.0" encoding="UTF-8" standalone="no"?>
<!DOCTYPE svg PUBLIC "-//W3C//DTD SVG 1.1//EN" "http://www.w3.org/Graphics/SVG/1.1/DTD/svg11.dtd">
<svg width="100%" height="100%" viewBox="0 0 181 181" version="1.1" xmlns="http://www.w3.org/2000/svg" xmlns:xlink="http://www.w3.org/1999/xlink" xml:space="preserve" xmlns:serif="http://www.serif.com/" style="fill-rule:evenodd;clip-rule:evenodd;stroke-linejoin:round;stroke-miterlimit:1.5;">
    <g transform="matrix(1,0,0,1,0,-26.2134)">
        <rect x="0" y="26.213" width="180.787" height="180.787" style="fill:none;"/>
        <g transform="matrix(-3.23553,2.14125,-3.07944,-3.26709,18.2487,190.831)">
            <path d="M-4.803,1.532C-5.288,7.653 -13.156,17.1 -18.672,19.796C-24.188,22.492 -35.531,26.27 -40.845,23.073C-48.553,18.436 -53.428,13.294 -52.46,7.707C-50.78,-1.987 -39.174,-10.718 -36.002,-11.999C-26.778,-15.724 -22.163,-14.117 -16.296,-11.758C-12.539,-10.247 -9.642,-8.189 -7.163,-4.966C-6.527,-4.137 -4.736,-0.045 -4.807,0.971" style="fill:rgb(128,184,200);fill-rule:nonzero;"/>
        </g>
        <g>
            <g transform="matrix(0.880558,0.880558,-0.643138,0.643138,46.0433,-11.6849)">
                <path d="M91.673,191.339L94.01,193.478L102.079,193.478L104.284,191.274L104.284,132.782L102.079,120.53L94.32,120.53L91.74,132.697L91.673,191.339Z" style="fill:rgb(55,59,66);stroke:rgb(55,59,66);stroke-width:6.42px;"/>
            </g>
            <circle cx="99.014" cy="108.024" r="58.199" style="fill:none;stroke:rgb(55,59,66);stroke-width:11px;stroke-linecap:round;"/>
            <g transform="matrix(1,0,0,0.36885,-37.4922,83.5799)">
                <path d="M99,33.147L99,99.396" style="fill:none;stroke:rgb(55,59,66);stroke-width:5.31px;"/>
            </g>
            <g transform="matrix(1,0,0,0.276613,-23.861,87.9424)">
                <path d="M99,45.801L99,99.396" style="fill:none;stroke:rgb(55,59,66);stroke-width:5.45px;"/>
            </g>
            <g transform="matrix(0,1,-0.894771,0,129.752,9.02408)">
                <path d="M99,45.801L99,99.396" style="fill:none;stroke:rgb(55,59,66);stroke-width:4.22px;"/>
            </g>
            <g transform="matrix(-1,0,0,-0.36885,235.52,132.468)">
                <path d="M99,33.147L99,99.396" style="fill:none;stroke:rgb(55,59,66);stroke-width:5.31px;"/>
            </g>
            <g transform="matrix(-1,0,0,-0.276613,221.889,128.106)">
                <path d="M99,45.801L99,99.396" style="fill:none;stroke:rgb(55,59,66);stroke-width:5.45px;"/>
            </g>
            <g transform="matrix(0,-1,0.894771,0,68.2758,207.024)">
                <path d="M99,45.801L99,99.396" style="fill:none;stroke:rgb(55,59,66);stroke-width:4.22px;"/>
            </g>
            <g transform="matrix(0,-1,0.36885,0,74.5696,244.53)">
                <path d="M99,33.147L99,99.396" style="fill:none;stroke:rgb(55,59,66);stroke-width:5.31px;"/>
            </g>
            <g transform="matrix(0,-1,0.276613,0,78.9321,230.899)">
                <path d="M99,45.801L99,99.396" style="fill:none;stroke:rgb(55,59,66);stroke-width:5.45px;"/>
            </g>
            <g transform="matrix(1,0,0,0.894771,0.013819,77.2861)">
                <path d="M99,45.801L99,99.396" style="fill:none;stroke:rgb(55,59,66);stroke-width:4.22px;"/>
            </g>
            <g transform="matrix(0,1,-0.36885,0,123.458,-28.4819)">
                <path d="M99,33.147L99,99.396" style="fill:none;stroke:rgb(55,59,66);stroke-width:5.31px;"/>
            </g>
            <g transform="matrix(0,1,-0.276613,0,119.096,-14.8507)">
                <path d="M99,45.801L99,99.396" style="fill:none;stroke:rgb(55,59,66);stroke-width:5.45px;"/>
            </g>
            <g transform="matrix(-1,0,0,-0.894771,198.014,138.762)">
                <path d="M99,45.801L99,99.396" style="fill:none;stroke:rgb(55,59,66);stroke-width:4.22px;"/>
            </g>
        </g>
    </g>
</svg>
