<svg clip-rule="evenodd" fill-rule="evenodd" stroke-linejoin="round" stroke-miterlimit="1.5" viewBox="0 0 181 181" xmlns="http://www.w3.org/2000/svg"><g transform="translate(0 -26.2134)"><path d="m0 26.213h180.787v180.787h-180.787z" fill="none"/><path d="m-4.803 1.532c-.485 6.121-8.353 15.568-13.869 18.264s-16.859 6.474-22.173 3.277c-7.708-4.637-12.583-9.779-11.615-15.366 1.68-9.694 13.286-18.425 16.458-19.706 9.224-3.725 13.839-2.118 19.706.241 3.757 1.511 6.654 3.569 9.133 6.792.636.829 2.427 4.921 2.356 5.937" fill="#6db0c6" fill-rule="nonzero" transform="matrix(-3.23553 2.14125 -3.07944 -3.26709 18.2487 190.831)"/><g stroke="#373b42"><path d="m91.673 191.339 2.337 2.139h8.069l2.205-2.204v-58.492l-2.205-12.252h-7.759l-2.58 12.167z" fill="#373b42" stroke-width="6.42" transform="matrix(.880558 .880558 -.643138 .643138 46.0433 -11.6849)"/><circle cx="99.013789" cy="108.02405" fill="none" r="58.19877" stroke-linecap="round" stroke-width="11.0023389"/><path d="m99 33.147v66.249" fill="none" stroke-width="5.31" transform="matrix(1 0 0 .36885 -37.492181 83.57988)"/><path d="m99 45.801v53.595" fill="none" stroke-width="5.45" transform="matrix(1 0 0 .276613 -23.860981 87.94238)"/><path d="m99 45.801v53.595" fill="none" stroke-width="4.22" transform="matrix(0 1 -.894771 0 129.751819 9.02408)"/><path d="m99 33.147v66.249" fill="none" stroke-width="5.31" transform="matrix(-1 0 0 -.36885 235.519819 132.46828)"/><path d="m99 45.801v53.595" fill="none" stroke-width="5.45" transform="matrix(-1 0 0 -.276613 221.888619 128.10578)"/><path d="m99 45.801v53.595" fill="none" stroke-width="4.22" transform="matrix(0 -1 .894771 0 68.275819 207.02408)"/><path d="m99 33.147v66.249" fill="none" stroke-width="5.31" transform="matrix(0 -1 .36885 0 74.569619 244.53008)"/><path d="m99 45.801v53.595" fill="none" stroke-width="5.45" transform="matrix(0 -1 .276613 0 78.932119 230.89888)"/><path d="m99 45.801v53.595" fill="none" stroke-width="4.22" transform="matrix(1 0 0 .894771 .013819 77.28608)"/><path d="m99 33.147v66.249" fill="none" stroke-width="5.31" transform="matrix(0 1 -.36885 0 123.458019 -28.48192)"/><path d="m99 45.801v53.595" fill="none" stroke-width="5.45" transform="matrix(0 1 -.276613 0 119.095519 -14.85072)"/><path d="m99 45.801v53.595" fill="none" stroke-width="4.22" transform="matrix(-1 0 0 -.894771 198.013819 138.76208)"/></g></g></svg>