<?xml version="1.0" encoding="UTF-8" standalone="no"?>
<!DOCTYPE svg PUBLIC "-//W3C//DTD SVG 1.1//EN" "http://www.w3.org/Graphics/SVG/1.1/DTD/svg11.dtd">
<svg width="100%" height="100%" viewBox="0 0 128 128" version="1.1" xmlns="http://www.w3.org/2000/svg" xmlns:xlink="http://www.w3.org/1999/xlink" xml:space="preserve" xmlns:serif="http://www.serif.com/" style="fill-rule:evenodd;clip-rule:evenodd;stroke-linejoin:round;stroke-miterlimit:2;">
    <g>
        <path d="M64,0C99.323,0 128,28.677 128,64C128,99.323 99.323,128 64,128C28.677,128 0,99.323 0,64C0,28.677 28.677,0 64,0ZM64,16.177C90.394,16.177 111.823,37.606 111.823,64C111.823,90.394 90.394,111.823 64,111.823C37.606,111.823 16.177,90.394 16.177,64C16.177,37.606 37.606,16.177 64,16.177Z"/>
        <g transform="matrix(-2.37303e-16,-1.29182,1.07601,-1.9766e-16,68.5064,144.865)">
            <rect x="57.705" y="9.008" width="9.785" height="43.78"/>
        </g>
        <g transform="matrix(1.08252,-2.6514e-16,1.7858e-16,0.729109,25.7603,41.472)">
            <rect x="57.705" y="9.008" width="9.785" height="43.78"/>
        </g>
        <g transform="matrix(7.91011e-17,1.29182,-1.07601,6.58866e-17,59.4936,-16.8647)">
            <rect x="57.705" y="9.008" width="9.785" height="43.78"/>
        </g>
        <g transform="matrix(-1.08252,1.3257e-16,-8.92901e-17,-0.729109,102.24,86.528)">
            <rect x="57.705" y="9.008" width="9.785" height="43.78"/>
        </g>
        <g transform="matrix(1.29182,-3.16404e-16,2.63546e-16,1.07601,-16.8647,68.5064)">
            <rect x="57.705" y="9.008" width="9.785" height="43.78"/>
        </g>
        <g transform="matrix(3.31425e-16,1.08252,-0.729109,2.23225e-16,86.528,25.7603)">
            <rect x="57.705" y="9.008" width="9.785" height="43.78"/>
        </g>
        <g transform="matrix(-1.29182,1.58202e-16,-1.31773e-16,-1.07601,144.865,59.4936)">
            <rect x="57.705" y="9.008" width="9.785" height="43.78"/>
        </g>
        <g transform="matrix(-1.98855e-16,-1.08252,0.729109,-1.33935e-16,41.472,102.24)">
            <rect x="57.705" y="9.008" width="9.785" height="43.78"/>
        </g>
    </g>
</svg>
