<?xml version="1.0" encoding="UTF-8" standalone="no"?>
<!DOCTYPE svg PUBLIC "-//W3C//DTD SVG 1.1//EN" "http://www.w3.org/Graphics/SVG/1.1/DTD/svg11.dtd">
<svg width="100%" height="100%" viewBox="0 0 128 128" version="1.1" xmlns="http://www.w3.org/2000/svg" xmlns:xlink="http://www.w3.org/1999/xlink" xml:space="preserve" xmlns:serif="http://www.serif.com/" style="fill-rule:evenodd;clip-rule:evenodd;stroke-linejoin:round;stroke-miterlimit:2;">
    <g>
        <path d="M64,0C99.323,0 128,28.677 128,64C128,99.323 99.323,128 64,128C28.677,128 0,99.323 0,64C0,28.677 28.677,0 64,0ZM64,16.177C90.394,16.177 111.823,37.606 111.823,64C111.823,90.394 90.394,111.823 64,111.823C37.606,111.823 16.177,90.394 16.177,64C16.177,37.606 37.606,16.177 64,16.177Z"/>
        <g transform="matrix(0.88981,-2.6514e-16,1.46789e-16,0.729109,34.8807,41.472)">
            <rect x="57.705" y="9.008" width="9.785" height="43.78"/>
        </g>
        <g transform="matrix(5.44851e-17,0.88981,-2.52698,1.54733e-16,142.495,8.30014)">
            <rect x="57.705" y="9.008" width="9.785" height="43.78"/>
        </g>
        <g transform="matrix(-0.88981,1.0897e-16,-8.92901e-17,-0.729109,93.1196,86.528)">
            <rect x="57.705" y="9.008" width="9.785" height="43.78"/>
        </g>
        <g transform="matrix(2.76835e-16,0.88981,-0.729109,2.20255e-16,86.528,34.8807)">
            <rect x="57.705" y="9.008" width="9.785" height="43.78"/>
        </g>
        <g transform="matrix(-0.88981,1.0897e-16,-3.06817e-16,-2.50535,119.496,141.441)">
            <rect x="57.705" y="9.008" width="9.785" height="43.78"/>
        </g>
        <g transform="matrix(-1.67865e-16,-0.88981,0.729109,-1.30965e-16,41.472,93.1196)">
            <rect x="57.705" y="9.008" width="9.785" height="43.78"/>
        </g>
    </g>
</svg>
